<svg width="400" height="400" xmlns="http://www.w3.org/2000/svg">
  <defs>
    <linearGradient id="bgGradient" x1="0%" y1="0%" x2="100%" y2="100%">
      <stop offset="0%" style="stop-color:#1a2a3a;stop-opacity:1" />
      <stop offset="100%" style="stop-color:#2c3e50;stop-opacity:1" />
    </linearGradient>
    <filter id="glow">
      <feGaussianBlur stdDeviation="2.5" result="coloredBlur"/>
      <feMerge>
        <feMergeNode in="coloredBlur"/>
        <feMergeNode in="SourceGraphic"/>
      </feMerge>
    </filter>
  </defs>
  
  <!-- Background -->
  <rect width="400" height="400" fill="url(#bgGradient)" />
  
  <!-- Hexagon Grid -->
  <g stroke="#4a69bd" stroke-width="1" opacity="0.3" fill="none">
    <polygon points="200,50 330,125 330,275 200,350 70,275 70,125" />
    <polygon points="200,100 297,156 297,244 200,300 103,244 103,156" />
    <polygon points="200,150 264,188 264,213 200,250 136,213 136,188" />
  </g>
  
  <!-- Data Hexagon -->
  <polygon points="200,75 313,140 313,260 200,325 87,260 87,140" fill="#4a69bd" opacity="0.6" filter="url(#glow)"/>
  
  <!-- Axis Lines -->
  <g stroke="#60a3bc" stroke-width="1" opacity="0.5">
    <line x1="200" y1="50" x2="200" y2="350" />
    <line x1="330" y1="125" x2="70" y2="275" />
    <line x1="330" y1="275" x2="70" y2="125" />
  </g>
  
  <!-- Feature Labels -->
  <g font-family="Arial, sans-serif" font-size="14" fill="#fad390" text-anchor="middle">
    <text x="200" y="40">代码分析</text>
    <text x="350" y="125">错误处理</text>
    <text x="350" y="295">终端执行</text>
    <text x="200" y="380">网页辅助</text>
    <text x="50" y="295">多模型支持</text>
    <text x="50" y="125">成本追踪</text>
  </g>
  
  <!-- Data Points -->
  <g fill="#f6b93b" filter="url(#glow)">
    <circle cx="200" cy="75" r="5" />
    <circle cx="313" cy="140" r="5" />
    <circle cx="313" cy="260" r="5" />
    <circle cx="200" cy="325" r="5" />
    <circle cx="87" cy="260" r="5" />
    <circle cx="87" cy="140" r="5" />
  </g>
  
  <!-- Cline Logo -->
  <g transform="translate(170, 170) scale(0.5)">
    <path d="M60 0 A60 60 0 0 1 60 120 A60 60 0 0 1 60 0 M60 20 A40 40 0 0 0 60 100 A40 40 0 0 0 60 20" fill="#60a3bc" />
    <circle cx="60" cy="60" r="15" fill="#4a69bd" />
  </g>
  
  <!-- Title -->
  <text x="200" y="200" font-family="Arial, sans-serif" font-size="24" font-weight="bold" fill="#fad390" text-anchor="middle" filter="url(#glow)">Cline 功能概览</text>
</svg>
