<svg xmlns="http://www.w3.org/2000/svg" width="800" height="400" viewBox="0 0 800 400">
  <defs>
    <!-- 背景渐变 -->
    <linearGradient id="bgGrad" x1="0%" y1="0%" x2="100%" y2="100%">
      <stop offset="0%" style="stop-color:#f8fafc;stop-opacity:1" />
      <stop offset="100%" style="stop-color:#e2e8f0;stop-opacity:1" />
    </linearGradient>
    
    <!-- 卡片渐变 -->
    <linearGradient id="cardGrad1" x1="0%" y1="0%" x2="100%" y2="100%">
      <stop offset="0%" style="stop-color:#3b82f6;stop-opacity:1" />
      <stop offset="100%" style="stop-color:#2563eb;stop-opacity:0.8" />
    </linearGradient>
    <linearGradient id="cardGrad2" x1="0%" y1="0%" x2="100%" y2="100%">
      <stop offset="0%" style="stop-color:#8b5cf6;stop-opacity:1" />
      <stop offset="100%" style="stop-color:#7c3aed;stop-opacity:0.8" />
    </linearGradient>
    <linearGradient id="cardGrad3" x1="0%" y1="0%" x2="100%" y2="100%">
      <stop offset="0%" style="stop-color:#ec4899;stop-opacity:1" />
      <stop offset="100%" style="stop-color:#db2777;stop-opacity:0.8" />
    </linearGradient>

    <!-- 卡片阴影 -->
    <filter id="cardShadow">
      <feDropShadow dx="0" dy="4" stdDeviation="8" flood-opacity="0.2"/>
    </filter>

    <!-- 发光效果 -->
    <filter id="glow">
      <feGaussianBlur stdDeviation="3" result="coloredBlur"/>
      <feMerge>
        <feMergeNode in="coloredBlur"/>
        <feMergeNode in="SourceGraphic"/>
      </feMerge>
    </filter>

    <!-- 背景图案 -->
    <pattern id="grid" width="40" height="40" patternUnits="userSpaceOnUse">
      <path d="M 40 0 L 0 0 0 40" fill="none" stroke="#e2e8f0" stroke-width="1"/>
    </pattern>
  </defs>

  <!-- 背景 -->
  <rect x="0" y="0" width="800" height="400" fill="url(#bgGrad)"/>
  <rect x="0" y="0" width="800" height="400" fill="url(#grid)" opacity="0.3"/>

  <!-- 装饰背景 -->
  <g opacity="0.1">
    <circle cx="100" cy="100" r="150" fill="#3b82f6"/>
    <circle cx="700" cy="300" r="150" fill="#8b5cf6"/>
  </g>

  <!-- 连接线 -->
  <g stroke="#94a3b8" stroke-width="2" opacity="0.3">
    <path d="M 270 200 C 350 200, 450 200, 530 200" stroke-dasharray="5,5"/>
    <path d="M 530 200 C 610 200, 710 200, 790 200" stroke-dasharray="5,5"/>
  </g>

  <!-- 工具卡片 -->
  <g>
    <!-- Cursor -->
    <g transform="translate(50,40)">
      <rect x="0" y="0" width="220" height="320" rx="20" 
            fill="url(#cardGrad1)" 
            filter="url(#cardShadow)"/>
      
      <!-- 卡片内容 -->
      <text x="110" y="50" 
            fill="white" 
            text-anchor="middle" 
            font-family="Arial" 
            font-size="24" 
            font-weight="bold">Cursor</text>
      
      <line x1="40" y1="70" x2="180" y2="70" 
            stroke="white" 
            stroke-width="2" 
            opacity="0.3"/>
      
      <!-- 特性列表 -->
      <g transform="translate(30,100)">
        <g transform="translate(0,0)">
          <circle cx="10" cy="0" r="5" fill="white"/>
          <text x="30" y="5" 
                fill="white" 
                font-family="Arial" 
                font-size="16">上下文感知编程</text>
        </g>
        
        <g transform="translate(0,50)">
          <circle cx="10" cy="0" r="5" fill="white"/>
          <text x="30" y="5" 
                fill="white" 
                font-family="Arial" 
                font-size="16">智能代码补全</text>
        </g>
        
        <g transform="translate(0,100)">
          <circle cx="10" cy="0" r="5" fill="white"/>
          <text x="30" y="5" 
                fill="white" 
                font-family="Arial" 
                font-size="16">实时代码审查</text>
        </g>
        
        <g transform="translate(0,150)">
          <circle cx="10" cy="0" r="5" fill="white"/>
          <text x="30" y="5" 
                fill="white" 
                font-family="Arial" 
                font-size="16">自然语言交互</text>
        </g>
      </g>
    </g>

    <!-- GitHub Copilot -->
    <g transform="translate(290,40)">
      <rect x="0" y="0" width="220" height="320" rx="20" 
            fill="url(#cardGrad2)" 
            filter="url(#cardShadow)"/>
      
      <text x="110" y="50" 
            fill="white" 
            text-anchor="middle" 
            font-family="Arial" 
            font-size="24" 
            font-weight="bold">GitHub Copilot</text>
      
      <line x1="40" y1="70" x2="180" y2="70" 
            stroke="white" 
            stroke-width="2" 
            opacity="0.3"/>
      
      <!-- 特性列表 -->
      <g transform="translate(30,100)">
        <g transform="translate(0,0)">
          <circle cx="10" cy="0" r="5" fill="white"/>
          <text x="30" y="5" 
                fill="white" 
                font-family="Arial" 
                font-size="16">AI代码生成</text>
        </g>
        
        <g transform="translate(0,50)">
          <circle cx="10" cy="0" r="5" fill="white"/>
          <text x="30" y="5" 
                fill="white" 
                font-family="Arial" 
                font-size="16">多语言支持</text>
        </g>
        
        <g transform="translate(0,100)">
          <circle cx="10" cy="0" r="5" fill="white"/>
          <text x="30" y="5" 
                fill="white" 
                font-family="Arial" 
                font-size="16">IDE集成</text>
        </g>
        
        <g transform="translate(0,150)">
          <circle cx="10" cy="0" r="5" fill="white"/>
          <text x="30" y="5" 
                fill="white" 
                font-family="Arial" 
                font-size="16">代码建议</text>
        </g>
      </g>
    </g>

    <!-- Amazon CodeWhisperer -->
    <g transform="translate(530,40)">
      <rect x="0" y="0" width="220" height="320" rx="20" 
            fill="url(#cardGrad3)" 
            filter="url(#cardShadow)"/>
      
      <text x="110" y="50" 
            fill="white" 
            text-anchor="middle" 
            font-family="Arial" 
            font-size="24" 
            font-weight="bold">CodeWhisperer</text>
      
      <line x1="40" y1="70" x2="180" y2="70" 
            stroke="white" 
            stroke-width="2" 
            opacity="0.3"/>
      
      <!-- 特性列表 -->
      <g transform="translate(30,100)">
        <g transform="translate(0,0)">
          <circle cx="10" cy="0" r="5" fill="white"/>
          <text x="30" y="5" 
                fill="white" 
                font-family="Arial" 
                font-size="16">AWS服务集成</text>
        </g>
        
        <g transform="translate(0,50)">
          <circle cx="10" cy="0" r="5" fill="white"/>
          <text x="30" y="5" 
                fill="white" 
                font-family="Arial" 
                font-size="16">安全扫描</text>
        </g>
        
        <g transform="translate(0,100)">
          <circle cx="10" cy="0" r="5" fill="white"/>
          <text x="30" y="5" 
                fill="white" 
                font-family="Arial" 
                font-size="16">代码生成</text>
        </g>
        
        <g transform="translate(0,150)">
          <circle cx="10" cy="0" r="5" fill="white"/>
          <text x="30" y="5" 
                fill="white" 
                font-family="Arial" 
                font-size="16">最佳实践建议</text>
        </g>
      </g>
    </g>
  </g>
</svg>